<svg width="140" height="33" xmlns="http://www.w3.org/2000/svg" fill="none">

 <g>
  <title>Layer 1</title>
  <text font-weight="bold" xml:space="preserve" text-anchor="start" font-family="'Caveat'" font-size="26" stroke-width="0" id="svg_7" y="23" x="52" stroke="null" fill="#000000">Jing Long</text>
  <path stroke="null" id="svg_9" d="m28.07804,14.50218c1.95322,0 3.90644,0 5.85969,0c0,1.78727 0,3.57446 0,5.36171c-1.95325,0 -3.90646,0 -5.85969,0c0,-1.78725 0,-3.57444 0,-5.36171zm-8.46397,0c2.17023,0 4.34051,0 6.51077,0c0,1.78727 0,3.57446 0,5.36171c-2.17024,0 -4.34054,0 -6.51077,0c0,-1.78725 0,-3.57444 0,-5.36171zm-7.81289,0c2.17025,0 4.34051,0 6.51076,0c0,1.78727 0,3.57446 0,5.36171c-2.17025,0 -4.34051,0 -6.51076,0c0,-1.78725 0,-3.57444 0,-5.36171zm-7.81288,0c2.17024,0 4.34051,0 6.51076,0c0,1.78727 0,3.57446 0,5.36171c-2.17025,0 -4.34051,0 -6.51076,0c0,-1.78725 0,-3.57444 0,-5.36171zm24.08975,11.0568c2.06175,-0.12106 4.12345,0.08555 6.18521,-0.03552c0.13229,-1.88654 0.071,-3.77304 0.20331,-5.65956c1.92944,0 4.05245,0 5.98188,0c0,-1.78725 0,-3.57447 0,-5.36171c-1.95321,0 -3.90644,0 -5.85967,0c0,-1.98583 0,-3.97164 0,-5.95743c-2.17026,0 -4.3405,0 -6.51074,0c0,-1.78725 0,-3.5745 0,-5.36172c2.17024,0 4.34048,0 6.51074,0c0,1.78722 0,3.57447 0,5.36172c1.92943,0 4.05244,-0.0886 5.98193,-0.0886c0.13229,1.88656 0.071,3.86164 0.20329,5.74814c2.06174,0.12106 4.15255,-0.01026 6.2143,0.11082c0,1.76546 -0.0291,3.78331 -0.0291,5.54878c-2.17022,0 -4.3405,0 -6.51075,0c0,1.9858 0,3.97162 0,5.95742c-1.95321,0 -3.90644,0 -5.85967,0c0,1.78722 0,3.5745 0,5.36171c-2.17022,0 -4.3405,0 -6.51074,0c0,-1.76547 0,-3.85857 0,-5.62405l0,0z" fill="#FFB27C"/>
 </g>
</svg>